<?xml version="1.0" encoding="UTF-8" standalone="no"?>
<!-- Created with Inkscape (http://www.inkscape.org/) -->

<svg
   width="24"
   height="24"
   viewBox="0 0 24 24"
   version="1.1"
   id="svg1"
   inkscape:version="1.3.2 (091e20e, 2023-11-25, custom)"
   sodipodi:docname="addPhoto.svg"
   fill="#aaa"
   stroke-width="0.1"
   xmlns:inkscape="http://www.inkscape.org/namespaces/inkscape"
   xmlns:sodipodi="http://sodipodi.sourceforge.net/DTD/sodipodi-0.dtd"
   xmlns:xlink="http://www.w3.org/1999/xlink"
   xmlns="http://www.w3.org/2000/svg"
   xmlns:svg="http://www.w3.org/2000/svg">
  <path
     d="m 12.065799,8.0387754 c -2.7808508,-3e-7 -5.0610238,2.2800656 -5.0610236,5.0607876 0,2.78072 2.2801729,5.060787 5.0610236,5.060787 2.780851,0 5.061023,-2.280067 5.061023,-5.060787 1e-6,-2.780721 -2.280172,-5.0607876 -5.061023,-5.0607876 z m 0,2.4098986 c 1.478385,0 2.651012,1.172573 2.651012,2.650889 0,1.478315 -1.172627,2.650889 -2.651012,2.650889 -1.478385,0 -2.6510123,-1.172574 -2.6510123,-2.650889 -1e-7,-1.478317 1.1726273,-2.650889 2.6510123,-2.650889 z"
     id="path2"
     style="stroke-width:0.0999998" />
  <style
     id="style1" />
  <sodipodi:namedview
     id="namedview1"
     pagecolor="#505050"
     bordercolor="#eeeeee"
     borderopacity="1"
     inkscape:showpageshadow="0"
     inkscape:pageopacity="0"
     inkscape:pagecheckerboard="0"
     inkscape:deskcolor="#505050"
     inkscape:document-units="mm"
     inkscape:zoom="19.43"
     inkscape:cx="12.583634"
     inkscape:cy="12.197633"
     inkscape:window-width="1280"
     inkscape:window-height="737"
     inkscape:window-x="-8"
     inkscape:window-y="-8"
     inkscape:window-maximized="1"
     inkscape:current-layer="svg1" />
  <defs
     id="defs1">
    <linearGradient
       id="swatch76"
       inkscape:swatch="solid">
      <stop
         style="stop-color:#ffffff;stop-opacity:0.960894;"
         offset="0"
         id="stop76" />
    </linearGradient>
    <color-profile
       name="sRGB-IEC61966-2.1"
       xlink:href="file:///C:/Windows/system32/spool/drivers/color/sRGB%20Color%20Space%20Profile.icm"
       id="color-profile2" />
    <linearGradient
       id="swatch32"
       inkscape:swatch="solid">
      <stop
         style="stop-color:#000000;stop-opacity:1;"
         offset="0"
         id="stop32" />
    </linearGradient>
    <inkscape:path-effect
       effect="fill_between_many"
       method="originald"
       linkedpaths="#path26,0,1|"
       id="path-effect30" />
  </defs>
  <path
     d="M 15.984375,0 H 10.248047 C 9.5576782,0.00644148 9.0032631,0.77056922 9.0097656,1.4609375 9.0162036,2.1520772 9.58231,2.6075899 10.273438,2.6 h 4.828125 l 0.492187,1.5171857 0.96875,0.8320312 c 0,0 2.360693,0.3423038 3.386719,0.59375 0.499368,0.2509491 0.850629,0.6605875 1.101562,1.296875 0.259931,0.6591037 0.35059,1.5053084 0.349219,2.2695313 -0.01267,3.2982108 0.04386,6.5800898 0,9.8437498 -0.08305,1.367945 -1.533321,2.567978 -2.913671,2.46875 -0.02859,-0.0023 -0.05726,-0.02157 -0.08594,-0.02187 -4.462868,-0.01366 -8.9127072,0.04807 -13.3476566,0 -1.2780542,-0.05037 -2.4567189,-1.299901 -2.453125,-2.58163 v -0.002 -0.002 -0.002 L 2.6,18.707436 C 2.589719,15.82571 2.6029091,13.04125 2.6,10.150391 2.5989223,9.4600329 2.0341081,8.9012619 1.34375,8.9023438 0.65415685,8.9034213 -9.5e-7,9.46275 0,10.152344 c 0.002904,2.881515 -0.010279,5.664971 0,8.555269 -0.0075438,2.690404 2.2567111,5.088077 4.9628906,5.188871 0.011067,1.47e-4 0.022136,0.103663 0.033203,0.103516 4.4782466,0.04894 8.9462874,-0.09562 13.3984374,-0.08204 L 18.308591,24 c 2.813727,0.202269 5.427017,-2.022689 5.595703,-4.904295 0.0011,-0.01821 0.09541,-0.03645 0.09571,-0.05469 0.04557,-3.323802 -0.08681,-6.63306 -0.07418,-9.9238285 2e-6,-0.0013 0.07418,-0.00261 0.07418,-0.00391 C 24.001749,8.1146385 23.799416,6.9931088 23.376953,5.921875 22.95449,4.8506412 22.184056,3.7963398 20.964844,3.2285156 20.896955,3.1968566 20.826359,3.1713634 20.753906,3.1523438 19.683734,2.8715986 18.691881,2.7606751 17.726562,2.6152344 L 17.181641,1.0475606 Z"
     id="rect46"
     sodipodi:nodetypes="ccccccccsccccccccccccccccccscscsccccc" />
  <path
     d="M 3.8615166,0.03642382 C 3.2707862,0.0492408 2.7878594,0.62065412 2.7999621,1.3118144 v 5.3007813 c 0.011869,0.68964 0.6006653,1.2376826 1.1900876,1.2246094 C 4.5801151,7.8243813 5.033249,7.2541715 5.0220816,6.5637676 V 1.2629863 C 5.0111216,0.57257783 4.4515781,0.02335734 3.8615166,0.03642382 Z"
     id="path46"
     sodipodi:nodetypes="ccccccc"
     style="stroke-width:0.1" />
  <path
     d="M 7.8917193,3.4355683 C 7.8789027,2.8448861 7.307489,2.3422619 6.6163284,2.3543639 H 1.3155468 C 0.62590714,2.3662319 0.07786486,2.9747167 0.09093776,3.5640903 0.10376124,4.1541073 0.67397084,4.5874674 1.3643748,4.5763011 H 6.6651565 C 7.3555649,4.5653419 7.9047855,4.025581 7.8917193,3.4355683 Z"
     id="path46-3"
     sodipodi:nodetypes="ccccccc"
     style="stroke-width:0.0999999" />
</svg>
