<?xml version="1.0" encoding="UTF-8" standalone="no"?>
<!-- Created with Inkscape (http://www.inkscape.org/) -->

<svg
   width="24"
   height="24"
   viewBox="0 0 24 24"
   version="1.1"
   id="svg1"
   inkscape:version="1.3.2 (091e20e, 2023-11-25, custom)"
   sodipodi:docname="settings.svg"
   fill="#aaa"
   stroke-width="0"
   xmlns:inkscape="http://www.inkscape.org/namespaces/inkscape"
   xmlns:sodipodi="http://sodipodi.sourceforge.net/DTD/sodipodi-0.dtd"
   xmlns="http://www.w3.org/2000/svg"
   xmlns:svg="http://www.w3.org/2000/svg">
  <sodipodi:namedview
     id="namedview1"
     pagecolor="#505050"
     bordercolor="#eeeeee"
     borderopacity="1"
     inkscape:showpageshadow="0"
     inkscape:pageopacity="0"
     inkscape:pagecheckerboard="0"
     inkscape:deskcolor="#505050"
     inkscape:document-units="mm"
     inkscape:zoom="19.43"
     inkscape:cx="12.454967"
     inkscape:cy="12.197633"
     inkscape:window-width="1280"
     inkscape:window-height="737"
     inkscape:window-x="-8"
     inkscape:window-y="-8"
     inkscape:window-maximized="1"
     inkscape:current-layer="svg1" />
  <defs
     id="defs1">
    <linearGradient
       id="swatch32"
       inkscape:swatch="solid">
      <stop
         style="stop-color:#000000;stop-opacity:1;"
         offset="0"
         id="stop32" />
    </linearGradient>
    <inkscape:path-effect
       effect="fill_between_many"
       method="originald"
       linkedpaths="#path26,0,1|"
       id="path-effect30" />
  </defs>
  <path
     d="M 11.998201,7.5003539 C 10.164264,7.4760001 8.3989776,8.7113172 7.7755793,10.45401 c -0.5997654,1.569633 -0.1963005,3.455328 0.9744694,4.647722 1.1822858,1.268094 3.1128293,1.73793 4.7346433,1.142495 1.693757,-0.578739 2.962027,-2.257011 3.009909,-4.07172 C 16.585707,10.410557 15.515015,8.6839406 13.93925,7.9447486 13.335806,7.6524775 12.667372,7.4995372 11.998201,7.5003539 Z m 0,2.296834 c 1.055196,-0.029253 2.063255,0.7988621 2.201642,1.8652571 0.180766,1.033527 -0.48673,2.120846 -1.47909,2.424623 -1.022605,0.36079 -2.27321,-0.12467 -2.7320012,-1.131052 -0.4859644,-0.966434 -0.1246469,-2.25829 0.8002012,-2.813224 0.359677,-0.2288552 0.784849,-0.346654 1.209248,-0.3456041 z"
     id="path31"
     style="" />
  <path
     d="M 12.018466,23.98216 C 10.73317,24.105066 9.2671138,23.601711 9.0242848,22.197991 8.8399318,21.660222 8.6555788,21.122452 8.4712264,20.584683 7.5866123,20.972423 6.7673794,21.532183 5.816636,21.745934 4.1474575,21.574636 2.4630566,19.891371 2.2912906,18.226261 2.5105712,17.279394 3.064357,16.459336 3.455849,15.577754 2.555616,15.228709 1.5804196,15.046209 0.75583228,14.529104 -0.26748542,13.221312 -0.23613982,10.881417 0.75539908,9.5503818 1.5810419,9.0350678 2.5544299,8.8470358 3.455849,8.4995802 3.0667874,7.6171168 2.5049284,6.8001474 2.2906523,5.8514364 2.4625028,4.1853565 4.1493736,2.5037561 5.8184442,2.3314372 6.76739,2.5500549 7.5890055,3.1029776 8.4723662,3.4937886 8.8224938,2.5959995 9.0044318,1.6226606 9.5241868,0.80106655 c 1.3001582,-1.0680453 3.6906712,-1.0681566 4.9905692,7.33e-5 0.513811,0.82428445 0.703496,1.79381645 1.05095,2.69264875 0.885092,-0.3881174 1.704311,-0.9497037 2.656132,-1.1620998 1.588219,0.1595061 3.1004,1.6616971 3.521046,3.1847194 0.01473,1.0291569 -0.689459,1.8711778 -1.066292,2.7933527 -0.233067,0.3885259 0.628875,0.3242879 0.86774,0.5176799 0.89385,0.317641 2.057716,0.523595 2.308346,1.6113432 0.149337,1.359336 0.411708,2.987695 -0.571996,4.091168 -0.826293,0.512022 -1.797726,0.701308 -2.698459,1.047802 0.378422,0.863703 0.925827,1.667531 1.157309,2.584052 0.0766,1.633841 -1.656184,2.750096 -2.859631,3.514916 -1.162476,0.24457 -2.106477,-0.58336 -3.123761,-0.998295 -0.390552,-0.234774 -0.326251,0.626182 -0.520137,0.86517 -0.333321,0.965359 -0.59915,2.237742 -1.859965,2.350982 z m -0.764845,-2.31124 c 0.72877,0.04563 1.733129,0.277884 1.771533,-0.703287 0.403849,-0.974928 0.481033,-2.220784 1.569392,-2.722011 1.217647,-0.399768 2.222475,0.506838 3.286357,0.937967 0.562427,0.504811 1.540064,-0.652043 1.381868,-1.122105 -0.394992,-0.902349 -0.983907,-1.734088 -1.15922,-2.716425 -0.08354,-1.431791 1.352502,-1.802767 2.415925,-2.148943 0.362598,-0.214661 1.068824,-0.162731 1.166629,-0.58282 0.108219,-0.751324 0.130163,-1.554036 -0.784069,-1.599624 C 19.944858,10.620912 18.722558,10.539438 18.238151,9.4686628 17.837377,8.253547 18.746243,7.2510233 19.178494,6.1895124 19.451897,5.5964304 19.99675,4.9583118 18.296807,4.6926308 17.309932,5.122383 16.399824,5.7623692 15.331268,5.9684279 13.896961,6.0506272 13.524511,4.6187848 13.177825,3.5575384 12.826401,2.7699413 12.895215,1.395926 11.253621,2.4086886 10.859774,3.4116258 10.667627,4.5082515 10.058214,5.4110608 9.1011568,6.4821179 7.8232524,5.7256513 6.824799,5.2219297 6.4196123,5.1217129 5.9566022,4.5813244 5.5955526,4.8170962 4.9947227,5.2804364 4.393994,5.8207776 5.0126764,6.5022514 5.4257975,7.4909961 6.3212481,8.5109778 5.7280772,9.6208138 5.1430287,10.606154 3.9053425,10.667524 2.9386434,11.080353 2.29065,11.328482 1.3485707,11.366962 2.3661442,12.802446 c 0.9798552,0.381657 2.0485777,0.580479 2.944881,1.135725 0.9505345,0.74496 0.6132476,1.980047 0.085228,2.856678 -0.2470904,0.503101 -0.4941817,1.006203 -0.7412731,1.509304 0.4926433,0.537898 1.027733,1.425054 1.7539812,0.755912 0.9756882,-0.40296 1.9121068,-1.227385 3.0352035,-0.817101 1.1426622,0.578273 1.2106452,1.928539 1.6574482,2.984443 0.05067,0.147837 0.101333,0.295676 0.152008,0.443513 z M 21.636592,10.96096 v 0.0046 z M 4.5136377,5.4854135 l 0.00114,0.00227 z m 13.5346803,-0.998656 0.0023,0.00114 z"
     id="path32"
     style="" />
</svg>
